<svg id="icons" xmlns="http://www.w3.org/2000/svg" viewBox="0 0 128 128"><defs><style>.Graphic-Style-7{fill:#f26d40;}.cls-1{fill:#d1392c;}.cls-2{fill:#fff;}.cls-3{fill:none;stroke:#3d344c;stroke-linecap:round;stroke-linejoin:round;stroke-width:4px;}</style></defs><title>truck</title><path class="Graphic-Style-7" d="M118,77v4a4,4,0,0,1-4,4H100a11,11,0,0,1-22,0H47a11,11,0,0,1-22,0H14a4,4,0,0,1-4-4V53H73V32H96.42a12,12,0,0,1,10.84,6.84l5.53,11.64.04.07A11.982,11.982,0,0,1,114,55.71V73A4,4,0,0,1,118,77Z"/><path class="cls-1" d="M53.873,60.249A17.4,17.4,0,0,0,56.29,53H44.7c-.186-.742-.281-1.587-.668-2.8a9.317,9.317,0,0,0-2.723-4.164c-1.98-1.879-5.691-4.754-8.641-3.641-1.684.635-1.592,1.825-2.355,3.238-1.443,2.671-4.1,3.9-5.708,6.373a8.87,8.87,0,0,0-.555.99H10V68.59q.69-.06,1.41-.15c8.01-1.02,14.37-6.12,22.79-5.95,4.99.1,11.58,3.85,16.37,1.1a9.315,9.315,0,0,0,2.849-2.667A1.4,1.4,0,0,0,53.873,60.249Z"/><path class="cls-2" d="M114,73V63.18c-4.48.1-9.45,1.61-12.13,5.23-1.81,2.45-2.25,5.7-3.07,8.57-.75,2.65-1.32,6.38-4.71,6.77-1.83.21-4.15-.89-5.74-1.62-5.98-2.74-11.99-6.8-18.95-5.52-4.66.85-7.32,4.35-9.03,8.39H78a11,11,0,0,0,22,0h14a4,4,0,0,0,4-4V77A4,4,0,0,0,114,73Z"/><path class="cls-1" d="M107.26,38.84A12,12,0,0,0,96.42,32H73V48.8a32.6,32.6,0,0,0,6.54-1.08,29.318,29.318,0,0,0,7.31-3.46c4.49-2.63,7.3-1.9,11.45.69a36.36,36.36,0,0,0,14.49,5.53Z"/><circle class="cls-3" cx="36" cy="85" r="11"/><circle class="cls-3" cx="89" cy="85" r="11"/><polyline class="cls-3" points="44.7 53 73 53 73 72 10 72 10 53 24.05 53"/><path class="cls-3" d="M114,73V55.711a12,12,0,0,0-1.166-5.159l-5.577-11.711A12,12,0,0,0,96.423,32H73V72H10v9a4,4,0,0,0,4,4H25a11,11,0,0,1,22,0H78a11,11,0,0,1,22,0h14a4,4,0,0,0,4-4V77A4,4,0,0,0,114,73Z"/><path class="cls-3" d="M114,56H94a4,4,0,0,1-4-4V32"/><path class="cls-1" d="M25.633,41.514c-3.179-2.119.764-6.878,3.057-3.821S27.925,43.042,25.633,41.514Z"/></svg>